<svg id="Layer_1" data-name="Layer 1" xmlns="http://www.w3.org/2000/svg" viewBox="0 0 68 80"><defs><style>.cls-1{fill:none;}.cls-2{fill:#004884;}.cls-3{fill:#36c;}.cls-4{fill:#fff;}</style></defs><path class="cls-1" d="M53.29,64.75H13.81v.82a2.37,2.37,0,0,0,2.37,2.36h40.3a2.37,2.37,0,0,0,2.37-2.36V7.09a2.37,2.37,0,0,0-2.37-2.36H16.18a2.37,2.37,0,0,0-2.37,2.36V39H53.29ZM40,26.13h0c-.4.95-3.69,4-4.46,4.86a5.78,5.78,0,0,1-8.14.09,5.85,5.85,0,0,1,0-8.18l3.38-3.45a0,0,0,0,1,.06,0A8,8,0,0,0,31,23.22a.26.26,0,0,1-.07.28l-1.61,1.66A2.75,2.75,0,1,0,33.27,29l2.65-2.7h0c.76-.79,1.72-1.66,1.85-2.61h0A2.64,2.64,0,0,0,37.49,22h0a2.87,2.87,0,0,0-1.11-1.13.26.26,0,0,1-.1-.34,5.47,5.47,0,0,1,1.54-1.86.32.32,0,0,1,.36,0A5.84,5.84,0,0,1,40.51,22h0A5.88,5.88,0,0,1,40,26.13Zm5.33-4.83-3.44,3.5a0,0,0,0,1,0,0A7.5,7.5,0,0,0,41.62,21a.28.28,0,0,1,.07-.29l1.61-1.66a2.77,2.77,0,0,0,0-3.9,2.74,2.74,0,0,0-3.88,0l-2.66,2.72h0c-.71.75-1.64,1.55-1.82,2.42h0a2.87,2.87,0,0,0,.24,1.92h0a3,3,0,0,0,1.12,1.15.21.21,0,0,1,.09.31,9.81,9.81,0,0,1-1.56,1.89.23.23,0,0,1-.3,0,5.83,5.83,0,0,1-.92-8.8h0l3.52-3.59a5.76,5.76,0,0,1,8.22,8.06Z"/><path class="cls-2" d="M56.48,0H16.18a7.1,7.1,0,0,0-7.1,7.09V39h4.73V7.09a2.37,2.37,0,0,1,2.37-2.36h40.3a2.37,2.37,0,0,1,2.37,2.36V65.57a2.37,2.37,0,0,1-2.37,2.36H16.18a2.37,2.37,0,0,1-2.37-2.36v-.82H9.08v.82a7.1,7.1,0,0,0,7.1,7.09h40.3a7.1,7.1,0,0,0,7.1-7.09V7.09A7.1,7.1,0,0,0,56.48,0Z"/><path class="cls-3" d="M37.11,13.24l-3.52,3.59h0a5.83,5.83,0,0,0,.92,8.8.23.23,0,0,0,.3,0,9.81,9.81,0,0,0,1.56-1.89.21.21,0,0,0-.09-.31,3,3,0,0,1-1.12-1.15h0a2.87,2.87,0,0,1-.24-1.92h0c.18-.87,1.11-1.67,1.82-2.42h0l2.66-2.72a2.74,2.74,0,0,1,3.88,0,2.77,2.77,0,0,1,0,3.9l-1.61,1.66a.28.28,0,0,0-.07.29,7.5,7.5,0,0,1,.22,3.74,0,0,0,0,0,0,0l3.44-3.5a5.76,5.76,0,0,0-8.22-8.06Z"/><path class="cls-3" d="M40.51,22h0a5.84,5.84,0,0,0-2.33-3.32.32.32,0,0,0-.36,0,5.47,5.47,0,0,0-1.54,1.86.26.26,0,0,0,.1.34A2.87,2.87,0,0,1,37.49,22h0a2.64,2.64,0,0,1,.28,1.73h0c-.13.95-1.09,1.82-1.85,2.61h0L33.27,29a2.75,2.75,0,1,1-3.93-3.86L31,23.5a.26.26,0,0,0,.07-.28,8,8,0,0,1-.23-3.74,0,0,0,0,0-.06,0l-3.38,3.45a5.85,5.85,0,0,0,0,8.18A5.78,5.78,0,0,0,35.53,31c.77-.86,4.06-3.91,4.46-4.86h0A5.88,5.88,0,0,0,40.51,22Z"/><path class="cls-2" d="M33,50c0-1.28-.83-2-2.47-2h-2.2v4.05h2.2C32.19,52.06,33,51.3,33,50Z"/><path class="cls-2" d="M15.15,45.81v6.42c0,2.21,1,3.12,2.59,3.12s2.6-.91,2.6-3.12V45.81H23v6.52c0,3.42-2,5.32-5.27,5.32a5.29,5.29,0,0,1-3.92-1.42v8.52H53.29V39H13.81v6.82Zm22.73,0h2.69v9.44h5.84v2.2H37.88Zm-12.22,0h5c3.1,0,5.05,1.61,5.05,4.22a3.78,3.78,0,0,1-2.4,3.68L36,57.45h-2.9l-2.24-3.24H28.35v3.24H25.66Z"/><polygon class="cls-2" points="8.29 38.99 4.42 38.99 4.42 42.62 4.42 61.52 4.42 64.75 8.29 64.75 9.08 64.75 9.08 38.99 8.29 38.99"/><path class="cls-2" d="M13.81,64.75V56.23a5.4,5.4,0,0,1-1.35-3.9V45.81h1.35V39H9.08V64.75h4.73Z"/><path class="cls-4" d="M17.73,57.65c3.31,0,5.27-1.9,5.27-5.32V45.81H20.34v6.42c0,2.21-.95,3.12-2.6,3.12s-2.59-.91-2.59-3.12V45.81H13.81V56.23A5.29,5.29,0,0,0,17.73,57.65Z"/><path class="cls-4" d="M12.46,45.81v6.52a5.4,5.4,0,0,0,1.35,3.9V45.81Z"/><path class="cls-4" d="M28.35,54.21h2.48l2.24,3.24H36l-2.62-3.74A3.78,3.78,0,0,0,35.75,50c0-2.61-2-4.22-5.05-4.22h-5V57.45h2.69Zm0-6.2h2.2c1.64,0,2.47.74,2.47,2s-.83,2-2.47,2h-2.2Z"/><polygon class="cls-4" points="46.41 55.25 40.57 55.25 40.57 45.81 37.88 45.81 37.88 57.45 46.41 57.45 46.41 55.25"/></svg>